<?xml version="1.0" standalone="no"?>
<!DOCTYPE svg PUBLIC "-//W3C//DTD SVG 20010904//EN"
 "http://www.w3.org/TR/2001/REC-SVG-20010904/DTD/svg10.dtd">
<svg version="1.0" xmlns="http://www.w3.org/2000/svg"
 width="500.000000pt" height="500.000000pt" viewBox="0 0 500.000000 500.000000"
 preserveAspectRatio="xMidYMid meet">

<g transform="translate(0.000000,500.000000) scale(0.100000,-0.100000)"
fill="#000000" stroke="none">
<path d="M2310 4987 c-3 -3 -32 -8 -65 -10 -103 -10 -170 -19 -175 -26 -3 -3
-23 -7 -45 -9 -40 -3 -238 -52 -291 -73 -16 -6 -31 -11 -34 -11 -21 -3 -138
-52 -151 -64 -9 -8 -18 -12 -21 -8 -7 7 -263 -120 -305 -152 -17 -13 -35 -24
-39 -24 -13 0 -157 -103 -253 -180 -118 -96 -345 -325 -336 -340 4 -6 1 -9 -7
-8 -7 2 -12 -5 -12 -14 1 -10 -2 -16 -6 -13 -13 8 -124 -136 -115 -148 3 -4 2
-5 -2 -2 -18 14 -204 -331 -274 -505 -56 -143 -110 -333 -125 -440 -2 -14 -8
-43 -13 -65 -21 -90 -33 -278 -27 -456 3 -101 5 -195 6 -208 0 -12 3 -28 6
-33 6 -9 13 -66 15 -110 0 -10 3 -18 7 -18 4 0 8 -15 9 -32 3 -64 49 -251 63
-256 4 -2 6 -12 3 -22 -3 -11 -1 -20 4 -20 5 0 10 -6 11 -12 3 -45 51 -170 63
-163 5 4 6 -1 3 -9 -9 -25 180 -394 207 -404 5 -2 9 -9 9 -16 0 -7 21 -41 48
-75 26 -35 53 -73 61 -85 79 -114 370 -404 393 -390 5 3 7 1 6 -4 -4 -14 138
-132 158 -132 4 0 17 -9 28 -19 47 -43 402 -231 443 -234 12 0 20 -4 18 -7 -6
-10 93 -42 106 -34 7 4 9 3 6 -3 -4 -7 26 -21 77 -37 425 -132 879 -149 1306
-47 114 28 260 73 256 80 -2 3 7 7 20 7 37 3 85 25 77 37 -4 6 -1 7 7 2 10 -6
122 37 140 55 3 3 12 6 20 8 22 4 234 124 238 134 2 4 10 8 18 8 8 0 14 4 14
9 0 5 8 11 18 14 31 8 222 159 215 169 -4 7 -1 8 6 3 15 -9 316 289 307 304
-4 5 -1 13 5 17 8 5 10 2 5 -7 -4 -8 -1 -5 8 5 8 10 13 24 9 30 -3 6 -3 8 2 4
14 -13 100 95 89 113 -4 7 -3 9 4 5 6 -3 20 7 32 24 12 16 18 30 13 30 -4 0
-1 5 7 10 8 5 15 13 15 18 0 5 8 16 18 26 15 16 18 23 16 42 0 3 8 12 18 20
10 7 14 14 8 14 -6 0 -6 3 1 8 28 19 180 335 169 353 -4 5 -2 9 3 9 11 0 61
146 91 265 65 259 92 552 72 789 -13 155 -49 370 -62 374 -5 2 -6 8 -3 13 15
25 -129 442 -159 461 -7 4 -9 8 -5 8 9 0 -71 162 -84 171 -6 3 -10 9 -10 12 0
16 -11 47 -17 47 -3 0 -12 13 -19 28 -6 16 -21 38 -31 49 -11 12 -18 23 -15
25 2 3 -6 16 -18 30 -13 14 -29 36 -37 49 -31 55 -77 108 -89 104 -7 -3 -10 0
-7 6 27 43 -518 542 -553 507 -7 -7 -10 -6 -9 3 1 8 -2 16 -8 19 -5 2 -18 11
-27 19 -10 8 -39 27 -65 41 -26 15 -69 39 -96 54 -26 15 -52 24 -57 21 -5 -3
-12 1 -17 8 -17 28 -355 165 -446 180 -12 2 -29 6 -37 10 -40 15 -162 39 -174
34 -8 -3 -17 -1 -20 6 -3 9 -7 8 -14 -2 -7 -9 -11 -10 -13 -2 -2 6 -29 16 -59
21 -59 11 -522 26 -530 17z m1085 -195 c-3 -3 -11 0 -18 7 -9 10 -8 11 6 5 10
-3 15 -9 12 -12z m-593 -725 c42 -9 109 -25 148 -37 39 -11 75 -18 82 -14 6 4
8 3 5 -3 -6 -9 111 -60 122 -54 2 2 7 -1 10 -6 12 -18 163 -93 173 -87 7 4 8
2 4 -5 -4 -6 0 -14 11 -18 10 -4 20 -9 23 -12 3 -4 39 -31 80 -62 116 -87 188
-154 261 -243 13 -15 31 -36 40 -46 9 -10 18 -22 20 -27 2 -6 29 -47 59 -92
39 -57 59 -80 70 -76 12 5 12 4 3 -6 -9 -9 -8 -19 4 -43 9 -17 20 -34 25 -37
5 -3 9 -8 7 -10 -5 -9 13 -49 22 -49 6 0 8 -4 5 -8 -3 -4 10 -46 27 -93 23
-62 37 -84 47 -82 12 4 13 3 1 -5 -10 -7 -11 -18 -6 -38 45 -162 68 -469 45
-595 -4 -24 -11 -66 -14 -92 -9 -67 -52 -223 -80 -293 -18 -43 -21 -61 -13
-66 8 -5 7 -8 -4 -8 -9 0 -28 -27 -47 -69 -31 -67 -81 -149 -122 -201 -11 -14
-20 -31 -20 -37 0 -7 -4 -13 -8 -13 -5 0 -23 -19 -40 -42 -17 -24 -47 -60 -66
-81 -19 -21 -36 -41 -38 -45 -2 -4 -16 -18 -33 -31 -16 -12 -49 -40 -72 -62
-23 -21 -45 -39 -48 -39 -4 0 -25 -15 -48 -33 -46 -37 -213 -135 -264 -156
-18 -7 -33 -17 -33 -21 0 -3 -6 -7 -13 -7 -8 0 -43 -11 -78 -25 -35 -14 -96
-33 -136 -43 -40 -10 -70 -22 -67 -27 3 -4 -1 -5 -8 -3 -8 3 -56 -1 -108 -9
-115 -18 -380 -14 -490 7 -56 11 -79 12 -89 3 -11 -8 -13 -8 -8 1 5 8 -6 16
-35 23 -24 7 -77 23 -118 37 -41 14 -81 26 -87 26 -7 0 -13 5 -13 10 0 5 -7 6
-16 3 -8 -3 -12 -2 -9 4 6 9 -11 14 -43 13 -7 -1 -11 2 -8 5 4 3 -8 11 -24 19
-29 11 -55 6 -313 -63 -155 -41 -304 -82 -331 -90 -74 -21 -107 -18 -158 16
-63 42 -82 85 -74 164 6 66 10 83 19 106 8 19 105 379 110 405 1 11 6 26 11
33 4 7 5 16 2 19 -3 3 -1 11 4 18 5 7 11 25 13 41 2 17 6 34 9 39 7 14 -17 56
-27 47 -5 -4 -5 -2 -2 4 4 6 -3 31 -15 55 -12 24 -23 46 -23 49 -12 45 -19 59
-28 53 -6 -3 -7 -1 -3 5 4 6 -5 51 -19 99 -36 129 -55 269 -55 428 -1 196 22
342 79 508 11 31 17 57 13 57 -4 0 -2 4 3 8 16 11 45 93 38 105 -3 6 -1 7 5 3
10 -6 28 30 24 47 -1 4 2 7 6 7 5 0 22 24 37 53 33 59 82 133 131 194 19 23
34 43 34 45 0 9 130 139 182 183 32 26 55 52 51 58 -3 6 -1 7 6 3 7 -5 28 4
49 20 35 27 44 34 75 59 7 6 18 11 25 13 18 3 95 53 104 66 4 6 8 8 8 3 0 -4
21 3 48 17 150 76 409 140 597 149 91 4 299 -11 377 -26z m-1642 -681 c0 -2
-7 -7 -16 -10 -8 -3 -12 -2 -9 4 6 10 25 14 25 6z"/>
<path d="M2394 3869 c-50 -4 -137 -17 -194 -29 -118 -24 -293 -87 -283 -103 3
-6 1 -7 -5 -3 -6 4 -35 -5 -64 -20 -56 -28 -208 -133 -208 -143 0 -4 -14 -15
-30 -25 -17 -9 -27 -22 -24 -28 4 -6 3 -8 -3 -5 -17 11 -198 -187 -187 -205 4
-6 2 -8 -3 -5 -6 4 -14 0 -17 -9 -9 -23 -8 -27 10 -20 9 3 12 2 9 -5 -4 -5
-14 -7 -24 -4 -13 4 -27 -12 -61 -72 -24 -42 -44 -84 -44 -94 0 -10 -3 -16 -7
-13 -8 4 -10 -1 -44 -96 -35 -97 -62 -205 -76 -299 -15 -107 -6 -404 15 -479
8 -29 15 -56 16 -60 4 -24 14 -58 19 -67 3 -5 7 -19 8 -30 2 -10 7 -22 11 -25
4 -3 8 -15 9 -28 2 -12 25 -70 52 -130 27 -59 46 -109 42 -112 -5 -4 -30 -90
-46 -160 -2 -8 -9 -30 -14 -49 -6 -19 -8 -37 -6 -42 3 -4 1 -10 -4 -13 -5 -4
-12 -25 -16 -49 -4 -23 -13 -60 -20 -82 -7 -22 -15 -53 -18 -70 -3 -16 -9 -41
-15 -55 -5 -14 -12 -41 -16 -62 l-7 -36 88 25 c48 13 102 27 118 29 17 2 37 7
45 10 8 4 42 13 75 20 85 20 85 20 189 48 51 14 105 26 119 26 14 0 62 -18
107 -40 44 -23 85 -38 89 -35 5 3 11 1 13 -5 1 -5 12 -11 23 -13 11 -2 31 -9
45 -14 92 -38 308 -73 450 -73 148 0 390 45 390 73 0 8 3 8 9 -2 6 -9 14 -10
22 -5 8 5 16 9 19 9 16 2 95 33 158 61 49 22 71 37 66 45 -4 8 -3 9 5 5 25
-16 187 106 306 229 94 97 120 126 120 134 0 3 12 19 27 35 15 16 26 32 23 34
-2 2 4 13 14 24 30 32 114 206 105 219 -4 7 -3 10 3 6 9 -6 16 14 27 73 1 3 5
11 9 17 9 14 8 10 38 148 17 77 22 134 22 250 1 201 -1 228 -10 222 -4 -3 -8
11 -7 31 1 34 -40 203 -54 227 -4 6 -8 18 -9 28 -6 38 -46 117 -56 110 -6 -3
-7 -1 -3 5 8 13 -33 92 -93 181 -79 117 -264 305 -293 297 -10 -2 -15 1 -12 9
6 15 -134 111 -211 145 -27 13 -58 26 -67 31 -80 40 -299 96 -405 104 -43 3
-98 7 -123 9 -25 2 -86 0 -136 -5z m-500 -1128 c-2 -2 13 -12 34 -22 98 -49
137 -116 138 -241 1 -48 -2 -85 -6 -83 -3 2 -12 -12 -19 -31 -7 -18 -16 -34
-20 -34 -4 0 -12 -10 -18 -22 -13 -29 -106 -76 -164 -84 -24 -3 -64 -1 -87 6
-35 9 -47 8 -60 -2 -16 -12 -16 -11 -2 6 14 18 13 19 -2 13 -10 -3 -17 -3 -15
1 1 4 -19 28 -44 53 -79 78 -102 211 -53 301 30 53 104 117 154 133 39 12 175
17 164 6z m672 -6 c105 -31 185 -139 185 -250 0 -69 -35 -149 -86 -193 -18
-17 -31 -34 -27 -38 4 -4 2 -4 -5 -1 -6 4 -17 1 -25 -6 -7 -8 -19 -12 -27 -9
-8 3 -11 1 -8 -4 5 -9 -18 -13 -73 -14 -51 -1 -123 23 -165 55 -24 19 -47 30
-52 27 -4 -4 -5 -3 -1 2 4 5 -1 21 -11 35 -42 60 -54 170 -27 236 8 18 12 36
8 39 -3 3 0 6 7 6 8 0 11 7 7 15 -3 8 -2 14 3 12 10 -3 81 59 75 67 -2 3 -2 4
2 2 3 -2 26 5 52 15 58 22 103 23 168 4z m721 -18 c28 -14 54 -23 58 -19 5 4
5 2 2 -5 -4 -6 3 -20 16 -30 13 -10 24 -20 24 -23 3 -17 27 -59 32 -56 12 7
12 -135 1 -172 -18 -55 -71 -130 -102 -143 -15 -6 -25 -15 -22 -20 3 -5 2 -8
-3 -7 -4 1 -29 -4 -56 -11 -57 -16 -124 -9 -183 20 -50 24 -102 74 -110 106
-4 13 -10 23 -15 23 -5 0 -8 3 -8 8 4 24 -3 53 -16 65 -8 9 -11 17 -6 19 5 2
11 21 14 43 7 54 42 129 75 160 81 76 202 93 299 42z m-1750 -162 c0 -8 -4
-12 -9 -9 -5 3 -6 10 -3 15 9 13 12 11 12 -6z m123 -295 c0 -5 -2 -10 -4 -10
-3 0 -8 5 -11 10 -3 6 -1 10 4 10 6 0 11 -4 11 -10z m1621 -873 c-6 -8 -7 -18
-3 -22 4 -5 1 -5 -6 -1 -10 6 -10 11 -1 22 6 8 14 14 16 14 3 0 0 -6 -6 -13z
m-316 -165 c-3 -3 -11 0 -18 7 -9 10 -8 11 6 5 10 -3 15 -9 12 -12z"/>
<path d="M1770 2515 c-17 -20 -5 -62 20 -70 47 -15 82 23 60 65 -13 24 -61 27
-80 5z"/>
<path d="M2463 2518 c-25 -33 -25 -39 2 -34 15 3 24 2 20 -2 -3 -4 -12 -7 -17
-7 -21 0 -19 -23 1 -30 48 -15 83 23 61 65 -12 22 -52 27 -67 8z"/>
<path d="M3129 2509 c-16 -30 3 -69 33 -69 22 0 63 19 43 20 -5 0 -4 4 4 9 12
8 13 14 3 35 -15 34 -66 37 -83 5z"/>
</g>
</svg>
